<svg width="45" height="44" viewBox="0 0 45 44" fill="none" xmlns="http://www.w3.org/2000/svg">
<rect x="0.333984" width="44" height="44" rx="12" fill="#16A34A"/>
<path d="M30.3346 19.332H25.0013V13.9987C25.0013 13.2915 24.7204 12.6132 24.2203 12.1131C23.7202 11.613 23.0419 11.332 22.3346 11.332C21.6274 11.332 20.9491 11.613 20.449 12.1131C19.9489 12.6132 19.668 13.2915 19.668 13.9987L19.7626 19.332H14.3346C13.6274 19.332 12.9491 19.613 12.449 20.1131C11.9489 20.6132 11.668 21.2915 11.668 21.9987C11.668 22.7059 11.9489 23.3842 12.449 23.8843C12.9491 24.3844 13.6274 24.6654 14.3346 24.6654L19.7626 24.5707L19.668 29.9987C19.668 30.7059 19.9489 31.3842 20.449 31.8843C20.9491 32.3844 21.6274 32.6654 22.3346 32.6654C23.0419 32.6654 23.7202 32.3844 24.2203 31.8843C24.7204 31.3842 25.0013 30.7059 25.0013 29.9987V24.5707L30.3346 24.6654C31.0419 24.6654 31.7202 24.3844 32.2203 23.8843C32.7204 23.3842 33.0013 22.7059 33.0013 21.9987C33.0013 21.2915 32.7204 20.6132 32.2203 20.1131C31.7202 19.613 31.0419 19.332 30.3346 19.332Z" fill="#F4F8FF"/>
</svg>
