<svg width="56" height="56" viewBox="0 0 56 56" fill="none" xmlns="http://www.w3.org/2000/svg">
<path d="M16.8008 36.4016H42.0008C43.5408 36.4016 44.8008 37.6616 44.8008 39.2016C44.8008 40.7416 43.5408 42.0016 42.0008 42.0016H14.0008C12.4608 42.0016 11.2008 40.7416 11.2008 39.2016V11.2016H5.60078C4.06078 11.2016 2.80078 9.94156 2.80078 8.40156C2.80078 6.86156 4.06078 5.60156 5.60078 5.60156H14.0008C15.5408 5.60156 16.8008 6.86156 16.8008 8.40156V14.0016H53.2008L42.0008 33.6016H16.8008V36.4016ZM15.4008 44.8016C17.7248 44.8016 19.6008 46.6776 19.6008 49.0016C19.6008 51.3256 17.7248 53.2016 15.4008 53.2016C13.0768 53.2016 11.2008 51.3256 11.2008 49.0016C11.2008 46.6776 13.0768 44.8016 15.4008 44.8016ZM40.6008 44.8016C42.9248 44.8016 44.8008 46.6776 44.8008 49.0016C44.8008 51.3256 42.9248 53.2016 40.6008 53.2016C38.2768 53.2016 36.4008 51.3256 36.4008 49.0016C36.4008 46.6776 38.2768 44.8016 40.6008 44.8016Z" fill="#030712"/>
</svg>
