<svg width="26" height="26" viewBox="0 0 26 26" fill="none" xmlns="http://www.w3.org/2000/svg">
<path d="M7.80078 16.9016H19.5008C20.2158 16.9016 20.8008 17.4866 20.8008 18.2016C20.8008 18.9166 20.2158 19.5016 19.5008 19.5016H6.50078C5.78578 19.5016 5.20078 18.9166 5.20078 18.2016V5.20156H2.60078C1.88578 5.20156 1.30078 4.61656 1.30078 3.90156C1.30078 3.18656 1.88578 2.60156 2.60078 2.60156H6.50078C7.21578 2.60156 7.80078 3.18656 7.80078 3.90156V6.50156H24.7008L19.5008 15.6016H7.80078V16.9016ZM7.15078 20.8016C8.22978 20.8016 9.10078 21.6726 9.10078 22.7516C9.10078 23.8306 8.22978 24.7016 7.15078 24.7016C6.07178 24.7016 5.20078 23.8306 5.20078 22.7516C5.20078 21.6726 6.07178 20.8016 7.15078 20.8016ZM18.8508 20.8016C19.9298 20.8016 20.8008 21.6726 20.8008 22.7516C20.8008 23.8306 19.9298 24.7016 18.8508 24.7016C17.7718 24.7016 16.9008 23.8306 16.9008 22.7516C16.9008 21.6726 17.7718 20.8016 18.8508 20.8016Z" fill="#DFE5F0"/>
</svg>
