<svg width="27" height="26" viewBox="0 0 27 26" fill="none" xmlns="http://www.w3.org/2000/svg">
<g clip-path="url(#clip0_204_8784)">
<path d="M23.9 3.46484C24.5896 3.46484 25.2509 3.73877 25.7385 4.22637C26.2261 4.71396 26.5 5.37528 26.5 6.06484V8.66484H0.5V6.06484C0.5 5.37528 0.773928 4.71396 1.26152 4.22637C1.74912 3.73877 2.41044 3.46484 3.1 3.46484H23.9Z" fill="#030712"/>
<path fill-rule="evenodd" clip-rule="evenodd" d="M0.5 10.3984V19.9318C0.5 20.6213 0.773928 21.2827 1.26152 21.7702C1.74912 22.2578 2.41044 22.5318 3.1 22.5318H23.9C24.5896 22.5318 25.2509 22.2578 25.7385 21.7702C26.2261 21.2827 26.5 20.6213 26.5 19.9318V10.3984H0.5ZM3.96667 17.3318H14.3667V15.5984H3.96667V17.3318ZM23.0333 17.3318H17.8333V15.5984H23.0333V17.3318Z" fill="#030712"/>
</g>
<defs>
<clipPath id="clip0_204_8784">
<rect width="26" height="26" fill="white" transform="translate(0.5)"/>
</clipPath>
</defs>
</svg>
