<svg width="57" height="56" viewBox="0 0 57 56" fill="none" xmlns="http://www.w3.org/2000/svg">
<rect x="0.333984" width="56" height="56" rx="12" fill="#B91C1C"/>
<path d="M25.6667 20.0013H31C31 19.2941 30.719 18.6158 30.219 18.1157C29.7189 17.6156 29.0406 17.3346 28.3333 17.3346C27.6261 17.3346 26.9478 17.6156 26.4477 18.1157C25.9476 18.6158 25.6667 19.2941 25.6667 20.0013ZM23 20.0013C23 18.5868 23.5619 17.2303 24.5621 16.2301C25.5623 15.2299 26.9188 14.668 28.3333 14.668C29.7478 14.668 31.1044 15.2299 32.1046 16.2301C33.1048 17.2303 33.6667 18.5868 33.6667 20.0013H40.3333C40.687 20.0013 41.0261 20.1418 41.2761 20.3918C41.5262 20.6419 41.6667 20.981 41.6667 21.3346C41.6667 21.6883 41.5262 22.0274 41.2761 22.2774C41.0261 22.5275 40.687 22.668 40.3333 22.668H39.1573L37.976 36.4546C37.8624 37.7859 37.2533 39.0261 36.2691 39.9298C35.285 40.8334 33.9975 41.3348 32.6613 41.3346H24.0053C22.6692 41.3348 21.3817 40.8334 20.3975 39.9298C19.4134 39.0261 18.8042 37.7859 18.6907 36.4546L17.5093 22.668H16.3333C15.9797 22.668 15.6406 22.5275 15.3905 22.2774C15.1405 22.0274 15 21.6883 15 21.3346C15 20.981 15.1405 20.6419 15.3905 20.3918C15.6406 20.1418 15.9797 20.0013 16.3333 20.0013H23ZM32.3333 28.0013C32.3333 27.6477 32.1929 27.3085 31.9428 27.0585C31.6928 26.8084 31.3536 26.668 31 26.668C30.6464 26.668 30.3072 26.8084 30.0572 27.0585C29.8071 27.3085 29.6667 27.6477 29.6667 28.0013V33.3346C29.6667 33.6883 29.8071 34.0274 30.0572 34.2774C30.3072 34.5275 30.6464 34.668 31 34.668C31.3536 34.668 31.6928 34.5275 31.9428 34.2774C32.1929 34.0274 32.3333 33.6883 32.3333 33.3346V28.0013ZM25.6667 26.668C25.313 26.668 24.9739 26.8084 24.7239 27.0585C24.4738 27.3085 24.3333 27.6477 24.3333 28.0013V33.3346C24.3333 33.6883 24.4738 34.0274 24.7239 34.2774C24.9739 34.5275 25.313 34.668 25.6667 34.668C26.0203 34.668 26.3594 34.5275 26.6095 34.2774C26.8595 34.0274 27 33.6883 27 33.3346V28.0013C27 27.6477 26.8595 27.3085 26.6095 27.0585C26.3594 26.8084 26.0203 26.668 25.6667 26.668Z" fill="#F4F8FF"/>
</svg>
