<svg width="364" height="50" viewBox="0 0 364 50" fill="none" xmlns="http://www.w3.org/2000/svg">
<path d="M62.7363 37.7227V11.1227H71.8183C74.9343 11.1227 77.493 11.68 79.4943 12.7947C81.521 13.884 83.0157 15.4293 83.9783 17.4307C84.9663 19.4067 85.4603 21.7373 85.4603 24.4227C85.4603 27.108 84.9663 29.4513 83.9783 31.4527C83.0157 33.4287 81.521 34.974 79.4943 36.0887C77.493 37.178 74.9343 37.7227 71.8183 37.7227H62.7363ZM67.6003 33.5427H71.5903C73.8197 33.5427 75.5803 33.188 76.8723 32.4787C78.1643 31.744 79.089 30.7053 79.6463 29.3627C80.2037 27.9947 80.4823 26.348 80.4823 24.4227C80.4823 22.5227 80.2037 20.8887 79.6463 19.5207C79.089 18.1527 78.1643 17.1013 76.8723 16.3667C75.5803 15.632 73.8197 15.2647 71.5903 15.2647H67.6003V33.5427ZM102.216 38.1787C99.556 38.1787 97.2253 37.596 95.224 36.4307C93.248 35.2653 91.69 33.6567 90.55 31.6047C89.4353 29.5273 88.878 27.1333 88.878 24.4227C88.878 21.712 89.4353 19.3307 90.55 17.2787C91.69 15.2013 93.248 13.58 95.224 12.4147C97.2253 11.2493 99.556 10.6667 102.216 10.6667C104.851 10.6667 107.169 11.2493 109.17 12.4147C111.171 13.58 112.729 15.2013 113.844 17.2787C114.959 19.3307 115.516 21.712 115.516 24.4227C115.516 27.1333 114.959 29.5273 113.844 31.6047C112.729 33.6567 111.171 35.2653 109.17 36.4307C107.169 37.596 104.851 38.1787 102.216 38.1787ZM102.216 33.8087C104.749 33.8087 106.763 32.9727 108.258 31.3007C109.778 29.6287 110.538 27.336 110.538 24.4227C110.538 21.5093 109.778 19.2167 108.258 17.5447C106.763 15.8727 104.749 15.0367 102.216 15.0367C99.6826 15.0367 97.656 15.8727 96.136 17.5447C94.616 19.2167 93.856 21.5093 93.856 24.4227C93.856 27.336 94.616 29.6287 96.136 31.3007C97.656 32.9727 99.6826 33.8087 102.216 33.8087ZM119.811 37.7227V11.1227H125.587L134.061 27.9947L142.421 11.1227H148.197V37.7227H143.333V19.3687L135.923 33.9227H132.085L124.675 19.3687V37.7227H119.811ZM161.88 28.7547V24.6887H177.802V28.7547H161.88ZM191.506 37.7227V11.1227H208.872V15.0367H196.37V22.3327H207.732V26.1327H196.37V33.8087H208.872V37.7227H191.506ZM218.453 37.7227L211.537 18.8747H216.629L221.417 33.1247L226.205 18.8747H231.297L224.343 37.7227H218.453ZM242.595 38.1787C240.695 38.1787 239.01 37.7733 237.541 36.9627C236.071 36.152 234.919 35.012 234.083 33.5427C233.247 32.0733 232.829 30.376 232.829 28.4507C232.829 26.5 233.234 24.7647 234.045 23.2447C234.881 21.7247 236.021 20.5467 237.465 19.7107C238.934 18.8493 240.657 18.4187 242.633 18.4187C244.482 18.4187 246.116 18.824 247.535 19.6347C248.953 20.4453 250.055 21.56 250.841 22.9787C251.651 24.372 252.057 25.93 252.057 27.6527C252.057 27.9313 252.044 28.2227 252.019 28.5267C252.019 28.8307 252.006 29.1473 251.981 29.4767H237.655C237.756 30.946 238.263 32.0987 239.175 32.9347C240.112 33.7707 241.239 34.1887 242.557 34.1887C243.545 34.1887 244.368 33.9733 245.027 33.5427C245.711 33.0867 246.217 32.504 246.547 31.7947H251.487C251.132 32.9853 250.537 34.0747 249.701 35.0627C248.89 36.0253 247.877 36.7853 246.661 37.3427C245.47 37.9 244.115 38.1787 242.595 38.1787ZM242.633 22.3707C241.442 22.3707 240.391 22.7127 239.479 23.3967C238.567 24.0553 237.984 25.0687 237.731 26.4367H247.117C247.041 25.1953 246.585 24.2073 245.749 23.4727C244.913 22.738 243.874 22.3707 242.633 22.3707ZM256.148 37.7227V18.8747H260.442L260.822 22.0667C261.404 20.952 262.24 20.0653 263.33 19.4067C264.444 18.748 265.749 18.4187 267.244 18.4187C269.574 18.4187 271.386 19.1533 272.678 20.6227C273.97 22.092 274.616 24.2453 274.616 27.0827V37.7227H269.752V27.5387C269.752 25.9173 269.422 24.676 268.764 23.8147C268.105 22.9533 267.079 22.5227 265.686 22.5227C264.318 22.5227 263.19 23.004 262.304 23.9667C261.442 24.9293 261.012 26.272 261.012 27.9947V37.7227H256.148ZM287.665 37.7227C285.689 37.7227 284.106 37.2413 282.915 36.2787C281.724 35.316 281.129 33.606 281.129 31.1487V22.9407H277.899V18.8747H281.129L281.699 13.8207H285.993V18.8747H291.085V22.9407H285.993V31.1867C285.993 32.0987 286.183 32.732 286.563 33.0867C286.968 33.416 287.652 33.5807 288.615 33.5807H290.971V37.7227H287.665ZM303.823 38.1787C301.999 38.1787 300.352 37.7607 298.883 36.9247C297.439 36.0887 296.286 34.936 295.425 33.4667C294.589 31.972 294.171 30.2493 294.171 28.2987C294.171 26.348 294.601 24.638 295.463 23.1687C296.324 21.674 297.477 20.5087 298.921 19.6727C300.39 18.8367 302.037 18.4187 303.861 18.4187C305.659 18.4187 307.281 18.8367 308.725 19.6727C310.194 20.5087 311.347 21.674 312.183 23.1687C313.044 24.638 313.475 26.348 313.475 28.2987C313.475 30.2493 313.044 31.972 312.183 33.4667C311.347 34.936 310.194 36.0887 308.725 36.9247C307.255 37.7607 305.621 38.1787 303.823 38.1787ZM303.823 33.9607C305.089 33.9607 306.191 33.492 307.129 32.5547C308.066 31.592 308.535 30.1733 308.535 28.2987C308.535 26.424 308.066 25.018 307.129 24.0807C306.191 23.118 305.102 22.6367 303.861 22.6367C302.569 22.6367 301.454 23.118 300.517 24.0807C299.605 25.018 299.149 26.424 299.149 28.2987C299.149 30.1733 299.605 31.592 300.517 32.5547C301.454 33.492 302.556 33.9607 303.823 33.9607ZM325.614 38.1787C323.942 38.1787 322.472 37.9127 321.206 37.3807C319.939 36.8233 318.926 36.0633 318.166 35.1007C317.406 34.138 316.95 33.0233 316.798 31.7567H321.7C321.852 32.4913 322.257 33.1247 322.916 33.6567C323.6 34.1633 324.474 34.4167 325.538 34.4167C326.602 34.4167 327.374 34.2013 327.856 33.7707C328.362 33.34 328.616 32.846 328.616 32.2887C328.616 31.478 328.261 30.9333 327.552 30.6547C326.842 30.3507 325.854 30.0593 324.588 29.7807C323.777 29.6033 322.954 29.388 322.118 29.1347C321.282 28.8813 320.509 28.5647 319.8 28.1847C319.116 27.7793 318.558 27.2727 318.128 26.6647C317.697 26.0313 317.482 25.2587 317.482 24.3467C317.482 22.6747 318.14 21.2687 319.458 20.1287C320.8 18.9887 322.675 18.4187 325.082 18.4187C327.311 18.4187 329.084 18.938 330.402 19.9767C331.744 21.0153 332.542 22.4467 332.796 24.2707H328.198C327.919 22.8773 326.868 22.1807 325.044 22.1807C324.132 22.1807 323.422 22.358 322.916 22.7127C322.434 23.0673 322.194 23.5107 322.194 24.0427C322.194 24.6 322.561 25.0433 323.296 25.3727C324.03 25.702 325.006 26.006 326.222 26.2847C327.539 26.5887 328.742 26.9307 329.832 27.3107C330.946 27.6653 331.833 28.21 332.492 28.9447C333.15 29.654 333.48 30.68 333.48 32.0227C333.505 33.188 333.201 34.2393 332.568 35.1767C331.934 36.114 331.022 36.8487 329.832 37.3807C328.641 37.9127 327.235 38.1787 325.614 38.1787Z" fill="#170F49"/>
<path d="M0 20.679C0 9.25828 9.25829 0 20.679 0V0V28.5654C20.679 39.9861 11.4207 49.2444 0 49.2444V49.2444V20.679Z" fill="#4A3AFF"/>
<path d="M23.6797 11.2368C23.6797 5.03088 28.7106 0 34.9165 0V0C41.1224 0 46.1532 5.03087 46.1532 11.2368V11.8855C46.1532 18.0914 41.1224 23.1223 34.9165 23.1223V23.1223C28.7106 23.1223 23.6797 18.0914 23.6797 11.8855V11.2368Z" fill="#4CBFFF"/>
<path d="M23.6797 37.3579C23.6797 31.152 28.7106 26.1211 34.9165 26.1211V26.1211C41.1224 26.1211 46.1532 31.152 46.1532 37.3579V38.0066C46.1532 44.2125 41.1224 49.2434 34.9165 49.2434V49.2434C28.7106 49.2434 23.6797 44.2125 23.6797 38.0066V37.3579Z" fill="#9328FF"/>
</svg>
