<svg width="32" height="32" viewBox="0 0 32 32" fill="none" xmlns="http://www.w3.org/2000/svg">
<path d="M26.666 5.33203H5.33268C3.85268 5.33203 2.67935 6.5187 2.67935 7.9987L2.66602 23.9987C2.66602 25.4787 3.85268 26.6654 5.33268 26.6654H26.666C28.146 26.6654 29.3327 25.4787 29.3327 23.9987V7.9987C29.3327 6.5187 28.146 5.33203 26.666 5.33203ZM14.666 13.332H10.666V14.6654H14.666C15.3993 14.6654 15.9993 15.2654 15.9993 15.9987V19.9987C15.9993 20.732 15.3993 21.332 14.666 21.332H13.3327C13.3327 22.0654 12.7327 22.6654 11.9993 22.6654C11.266 22.6654 10.666 22.0654 10.666 21.332H9.33268C8.59935 21.332 7.99935 20.732 7.99935 19.9987C7.99935 19.2654 8.59935 18.6654 9.33268 18.6654H13.3327V17.332H9.33268C8.59935 17.332 7.99935 16.732 7.99935 15.9987V11.9987C7.99935 11.2654 8.59935 10.6654 9.33268 10.6654H10.666C10.666 9.93203 11.266 9.33203 11.9993 9.33203C12.7327 9.33203 13.3327 9.93203 13.3327 10.6654H14.666C15.3993 10.6654 15.9993 11.2654 15.9993 11.9987C15.9993 12.732 15.3993 13.332 14.666 13.332ZM20.866 21.1987L18.666 18.9987H23.9993L21.7993 21.1987C21.546 21.452 21.1193 21.452 20.866 21.1987ZM18.666 13.332L20.866 11.132C21.1327 10.8654 21.546 10.8654 21.8127 11.132L23.9993 13.332H18.666Z" fill="#4B5563"/>
</svg>
